<svg width="21" height="21" viewBox="0 0 21 21" fill="none" xmlns="http://www.w3.org/2000/svg">
<path d="M2.16602 7.64073C2.16602 6.64391 2.568 6.03302 3.39987 5.57007L6.82424 3.66437C8.6186 2.6658 9.51577 2.1665 10.4993 2.1665C11.4829 2.1665 12.3801 2.6658 14.1744 3.66437L17.5988 5.57007C18.4307 6.03302 18.8327 6.64392 18.8327 7.64073C18.8327 7.91103 18.8327 8.04618 18.8032 8.15729C18.6481 8.74105 18.1191 8.83317 17.6083 8.83317H3.39042C2.87957 8.83317 2.35062 8.74104 2.19553 8.15729C2.16602 8.04618 2.16602 7.91103 2.16602 7.64073Z" stroke="#1D1D1D" stroke-width="1.5"/>
<path d="M10.4961 6.3335H10.5036" stroke="#1D1D1D" stroke-width="2" stroke-linecap="round" stroke-linejoin="round"/>
<path d="M3.83398 8.8335V15.9168M7.16732 8.8335V15.9168" stroke="#1D1D1D" stroke-width="1.5"/>
<path d="M13.834 8.8335V15.9168M17.1673 8.8335V15.9168" stroke="#1D1D1D" stroke-width="1.5"/>
<path d="M16.3327 15.9165H4.66602C3.28531 15.9165 2.16602 17.0358 2.16602 18.4165C2.16602 18.6466 2.35257 18.8332 2.58268 18.8332H18.416C18.6461 18.8332 18.8327 18.6466 18.8327 18.4165C18.8327 17.0358 17.7134 15.9165 16.3327 15.9165Z" stroke="#1D1D1D" stroke-width="1.5"/>
</svg>
