<svg width="21" height="20" viewBox="0 0 21 20" fill="none" xmlns="http://www.w3.org/2000/svg">
<path d="M5.33398 1.66699L2.83398 5.00033V16.667C2.83398 17.109 3.00958 17.5329 3.32214 17.8455C3.6347 18.1581 4.05862 18.3337 4.50065 18.3337H16.1673C16.6093 18.3337 17.0333 18.1581 17.3458 17.8455C17.6584 17.5329 17.834 17.109 17.834 16.667V5.00033L15.334 1.66699H5.33398Z" stroke="#1D1D1D" stroke-width="1.5" stroke-linecap="round" stroke-linejoin="round"/>
<path d="M2.83398 5H17.834" stroke="#1D1D1D" stroke-width="1.5" stroke-linecap="round" stroke-linejoin="round"/>
<path d="M13.6676 8.33301C13.6676 9.21706 13.3165 10.0649 12.6913 10.69C12.0662 11.3152 11.2184 11.6663 10.3343 11.6663C9.45025 11.6663 8.60241 11.3152 7.97729 10.69C7.35217 10.0649 7.00098 9.21706 7.00098 8.33301" stroke="#1D1D1D" stroke-width="1.5" stroke-linecap="round" stroke-linejoin="round"/>
</svg>
