<svg width="20" height="21" viewBox="0 0 20 21" fill="none" xmlns="http://www.w3.org/2000/svg">
<path d="M1.66602 10.5002C1.66602 7.55226 1.66602 6.0783 2.54335 5.09425C2.68367 4.93685 2.83833 4.79129 3.00557 4.65922C4.05112 3.8335 5.6172 3.8335 8.74935 3.8335H11.2493C14.3815 3.8335 15.9476 3.8335 16.9931 4.65922C17.1603 4.79129 17.315 4.93685 17.4553 5.09425C18.3327 6.0783 18.3327 7.55226 18.3327 10.5002C18.3327 13.4481 18.3327 14.922 17.4553 15.9061C17.315 16.0635 17.1603 16.209 16.9931 16.3411C15.9476 17.1668 14.3815 17.1668 11.2493 17.1668H8.74935C5.6172 17.1668 4.05112 17.1668 3.00557 16.3411C2.83833 16.209 2.68367 16.0635 2.54335 15.9061C1.66602 14.922 1.66602 13.4481 1.66602 10.5002Z" stroke="#1D1D1D" stroke-width="1.5" stroke-linecap="round" stroke-linejoin="round"/>
<path d="M8.33398 13.8335H9.58398" stroke="#1D1D1D" stroke-width="1.5" stroke-miterlimit="10" stroke-linecap="round" stroke-linejoin="round"/>
<path d="M12.084 13.8335H15.0007" stroke="#1D1D1D" stroke-width="1.5" stroke-miterlimit="10" stroke-linecap="round" stroke-linejoin="round"/>
<path d="M1.66602 8H18.3327" stroke="#1D1D1D" stroke-width="1.5" stroke-linejoin="round"/>
</svg>
